<svg version="1.1" id="Layer_1" xmlns="http://www.w3.org/2000/svg" xmlns:xlink="http://www.w3.org/1999/xlink" x="0px" y="0px"
	 width="100%" viewBox="0 0 1024 1024" enable-background="new 0 0 1024 1024" xml:space="preserve">
<path fill="#FF9900" opacity="1.000000" stroke="none" 
	d="
M705.000000,1025.000000 
	C470.000000,1025.000000 235.500000,1025.000000 1.000000,1025.000000 
	C1.000000,683.666687 1.000000,342.333344 1.000000,1.000000 
	C342.333344,1.000000 683.666687,1.000000 1025.000000,1.000000 
	C1025.000000,342.333344 1025.000000,683.666687 1025.000000,1025.000000 
	C918.500000,1025.000000 812.000000,1025.000000 705.000000,1025.000000 
M231.044220,450.306702 
	C230.196594,451.875275 229.064148,453.355347 228.545090,455.026001 
	C222.958267,473.006958 219.399475,491.488495 219.246887,510.235596 
	C219.101730,528.069519 220.937851,545.922119 222.032166,563.758606 
	C222.120789,565.203430 223.208817,566.586975 223.991287,568.821228 
	C225.861588,578.400391 227.399109,588.058716 229.655792,597.545959 
	C245.312637,663.368347 274.626068,722.650146 316.001648,776.011353 
	C335.292938,800.890930 357.225922,823.011780 384.650208,839.160706 
	C406.318817,851.920349 429.271332,858.003479 454.156433,851.839783 
	C465.814606,848.952271 477.095367,844.488037 488.465759,840.505981 
	C500.647369,836.239929 513.006653,832.686096 525.881104,836.147827 
	C535.258545,838.669250 544.454407,842.045898 553.477783,845.671936 
	C588.666199,859.812195 621.419189,856.004333 652.254028,833.675720 
	C671.430054,819.789551 688.318481,803.564514 702.960754,785.139221 
	C752.314392,723.034668 787.111877,654.009888 801.218506,575.351318 
	C807.076904,542.684998 808.209900,509.968292 802.039429,477.201050 
	C794.259583,435.888275 775.772705,400.606873 743.058289,373.524475 
	C712.788696,348.466064 677.791870,338.911621 639.024353,343.292023 
	C615.326477,345.969635 592.885681,353.441284 571.343323,363.546722 
	C557.557190,370.013763 543.984497,376.938354 530.161499,383.323059 
	C520.957092,387.574371 511.853546,387.123169 503.204742,381.282379 
	C498.536743,378.130035 493.615875,375.354828 488.861176,372.327698 
	C458.406464,352.938599 426.132843,338.826508 389.427643,336.679443 
	C358.833405,334.889832 330.346497,341.621185 304.291656,357.484039 
	C268.628387,379.196808 245.324860,410.914978 231.044220,450.306702 
M682.828003,147.205139 
	C675.925903,149.477814 668.939514,151.524292 662.135254,154.059570 
	C615.309692,171.506775 578.786926,200.806290 556.569336,246.392120 
	C546.513794,267.024078 541.201843,288.992615 539.170227,311.733612 
	C538.469116,319.582092 539.058716,327.545868 539.058716,335.443573 
	C561.942993,335.804932 593.306091,333.721191 623.036438,324.962860 
	C670.233887,311.058746 707.674194,284.430115 732.287903,241.102005 
	C747.404846,214.491226 755.641174,185.725952 758.862366,155.439392 
	C759.538452,149.081924 759.563293,142.655182 759.906372,135.902969 
	C733.651306,137.213547 708.401184,140.445953 682.828003,147.205139 
M479.120880,295.418518 
	C489.906921,314.175720 497.843048,334.192627 503.461639,354.968842 
	C505.607635,362.904236 511.022705,365.535583 517.596680,369.585571 
	C518.135498,365.773895 519.015015,362.714966 518.926636,359.684296 
	C518.114380,331.846222 513.743652,304.651428 504.296143,278.329285 
	C494.780151,251.816238 481.041840,228.101151 459.707092,209.274475 
	C452.184357,202.636108 443.947784,197.071838 434.138763,194.413910 
	C432.365082,193.933319 429.473450,194.098297 428.362183,195.218918 
	C421.219696,202.421371 414.272064,209.835251 407.588806,217.467209 
	C404.181030,221.358688 405.017242,224.876236 409.565948,227.199875 
	C439.645416,242.565323 461.985992,265.835297 479.120880,295.418518 
z"/>
<path fill="#FFFDF8" opacity="1.000000" stroke="none" 
	d="
M231.642975,450.035950 
	C245.324860,410.914978 268.628387,379.196808 304.291656,357.484039 
	C330.346497,341.621185 358.833405,334.889832 389.427643,336.679443 
	C426.132843,338.826508 458.406464,352.938599 488.861176,372.327698 
	C493.615875,375.354828 498.536743,378.130035 503.204742,381.282379 
	C511.853546,387.123169 520.957092,387.574371 530.161499,383.323059 
	C543.984497,376.938354 557.557190,370.013763 571.343323,363.546722 
	C592.885681,353.441284 615.326477,345.969635 639.024353,343.292023 
	C677.791870,338.911621 712.788696,348.466064 743.058289,373.524475 
	C775.772705,400.606873 794.259583,435.888275 802.039429,477.201050 
	C808.209900,509.968292 807.076904,542.684998 801.218506,575.351318 
	C787.111877,654.009888 752.314392,723.034668 702.960754,785.139221 
	C688.318481,803.564514 671.430054,819.789551 652.254028,833.675720 
	C621.419189,856.004333 588.666199,859.812195 553.477783,845.671936 
	C544.454407,842.045898 535.258545,838.669250 525.881104,836.147827 
	C513.006653,832.686096 500.647369,836.239929 488.465759,840.505981 
	C477.095367,844.488037 465.814606,848.952271 454.156433,851.839783 
	C429.271332,858.003479 406.318817,851.920349 384.650208,839.160706 
	C357.225922,823.011780 335.292938,800.890930 316.001648,776.011353 
	C274.626068,722.650146 245.312637,663.368347 229.655792,597.545959 
	C227.399109,588.058716 225.861588,578.400391 223.959290,567.992065 
	C222.976852,559.445618 221.693878,551.752380 221.134048,544.006836 
	C218.824432,512.051636 221.333954,480.597870 231.642975,450.035950 
M606.232666,515.275879 
	C606.232666,515.275879 606.219910,515.462463 605.914246,515.684570 
	C605.715820,515.845093 605.550903,516.034729 605.230469,516.274658 
	C605.230469,516.274658 605.218384,516.464478 604.914551,516.686157 
	C604.717163,516.846069 604.552795,517.034729 604.274719,517.266663 
	C604.274719,517.266663 604.257751,517.413147 603.842957,517.754822 
	C603.516846,518.162781 603.190735,518.570679 602.341492,519.162231 
	C601.886780,519.727783 601.432129,520.293274 600.476929,521.063599 
	C600.116150,521.466431 599.755432,521.869324 599.219421,522.295227 
	C599.219421,522.295227 599.210266,522.471802 598.915283,522.693420 
	C598.723389,522.851318 598.560791,523.035156 598.259216,523.258179 
	C598.259216,523.258179 598.240356,523.425964 597.834106,523.757202 
	C597.521057,524.157410 597.208008,524.557556 596.963562,524.963379 
	C596.963562,524.963379 596.957397,524.894775 596.401672,525.127136 
	C595.904907,525.740723 595.408142,526.354309 594.989441,526.981018 
	C594.989441,526.981018 595.001892,526.902954 594.486389,527.095825 
	C594.295837,527.398621 594.105347,527.701416 594.003357,528.004211 
	C594.003357,528.004211 594.003662,527.915649 593.483887,528.096130 
	C593.279785,528.392090 593.075684,528.687988 592.312988,529.200500 
	C591.533936,530.091736 590.754883,530.983032 589.466492,532.080566 
	C589.102722,532.494080 588.738892,532.907593 588.302185,533.333435 
	C588.302185,533.333435 588.284912,533.405396 587.865845,533.743896 
	C587.544861,534.158142 587.223877,534.572449 586.452271,535.119873 
	C586.163574,535.301758 586.009155,535.562988 585.442749,536.134338 
	C584.769226,536.852966 584.095764,537.571655 583.301880,538.312622 
	C583.301880,538.312622 583.294250,538.434814 582.943237,538.706604 
	C582.713562,538.899780 582.526245,539.127747 582.586487,539.664307 
	C582.586487,539.664307 582.345093,539.421753 581.974609,539.693176 
	C581.728760,539.886597 581.530273,540.120178 581.527039,540.672546 
	C581.527039,540.672546 581.337708,540.420349 580.968140,540.690430 
	C580.726135,540.885132 580.529907,541.118408 580.592285,541.706909 
	C580.592285,541.706909 580.343750,541.417480 579.967651,541.695129 
	C579.720703,541.894775 579.522766,542.134888 579.826294,542.908997 
	C579.672974,542.743286 579.519653,542.577637 578.981750,542.692261 
	C578.729248,542.894531 578.526611,543.138306 578.776855,543.651001 
	C578.776855,543.651001 578.366943,543.412231 577.981934,543.692505 
	C577.729126,543.894775 577.526306,544.138611 577.358948,544.760803 
	C577.358948,544.760803 577.350342,544.418762 576.986389,544.671387 
	C576.752380,544.857849 576.556213,545.078064 576.193237,545.370300 
	C576.193237,545.370300 576.191406,545.578552 575.984985,545.704468 
	C575.984985,545.704468 575.961853,545.945129 575.352722,546.223694 
	C562.209473,559.699341 549.066223,573.174988 535.369507,586.942444 
	C535.173157,587.298218 534.976807,587.653992 535.008728,587.972961 
	C535.008728,587.972961 534.971436,587.744751 534.385010,587.951904 
	C534.173401,588.296082 533.961853,588.640198 533.980408,588.974548 
	C533.980408,588.974548 533.969604,588.744446 533.386292,588.954468 
	C533.183716,589.301514 532.981079,589.648560 532.993713,589.986633 
	C532.993713,589.986633 532.984131,589.771484 532.398254,589.963867 
	C532.188354,590.305725 531.978455,590.647522 531.984619,590.980530 
	C531.984619,590.980530 531.975220,590.764343 531.403015,590.974670 
	C531.206665,591.317993 531.010315,591.661255 531.003296,591.996277 
	C531.003296,591.996277 530.994629,591.806885 530.418701,591.993591 
	C530.217163,592.329712 530.015564,592.665894 530.002197,592.996460 
	C530.002197,592.996460 529.996216,592.808350 529.416687,592.991882 
	C529.207214,593.325867 528.997742,593.659851 528.991211,593.987366 
	C528.991211,593.987366 528.984314,593.784363 528.413879,593.985718 
	C528.215454,594.325317 528.017090,594.664978 528.002014,594.998047 
	C528.002014,594.998047 527.995850,594.814758 527.427551,595.006470 
	C527.223938,595.338257 527.020264,595.670105 527.000122,595.997559 
	C527.000122,595.997559 526.995300,595.814026 526.427795,596.007019 
	C526.223999,596.338623 526.020203,596.670227 526.000000,596.997314 
	C526.000000,596.997314 525.995056,596.813660 525.428833,597.008240 
	C525.224304,597.339172 525.019775,597.670105 524.999084,597.996277 
	C524.999084,597.996277 524.993896,597.812439 524.429077,598.009583 
	C524.224304,598.339966 524.019592,598.670349 524.000244,599.007080 
	C524.000244,599.007080 524.006958,598.821655 523.436096,599.002625 
	C523.203796,599.317078 522.971497,599.631531 522.332458,600.052856 
	C522.078735,600.226135 521.953796,600.466370 521.428101,601.016968 
	C521.210510,601.332031 520.992981,601.647156 520.190613,602.234863 
	C518.114929,604.424194 516.039307,606.613525 513.440552,609.039124 
	C513.224243,609.346985 513.007935,609.654846 512.199402,610.223694 
	C510.121155,612.418030 508.042877,614.612305 505.441376,617.043152 
	C505.224884,617.351440 505.008392,617.659729 504.200256,618.228760 
	C502.120667,620.418030 500.041077,622.607300 497.437866,625.035339 
	C497.222626,625.345642 497.007416,625.655884 496.206390,626.239502 
	C494.125641,628.429138 492.044891,630.618713 489.447845,633.045227 
	C489.240692,633.355530 489.033539,633.665833 488.244476,634.223877 
	C486.818939,635.757935 485.393402,637.291931 483.445282,639.056580 
	C483.252533,639.375183 483.059814,639.693726 483.009460,640.006531 
	C483.009460,640.006531 483.004028,639.864136 482.460114,640.054810 
	C482.261444,640.372559 482.062744,640.690247 482.007294,641.008606 
	C482.007294,641.008606 482.008270,640.865295 481.445984,641.050293 
	C481.228760,641.364075 481.011505,641.677856 480.965576,641.952148 
	C480.965576,641.952148 480.924438,641.781250 480.431976,641.948364 
	C480.303558,642.064819 480.175140,642.181274 479.397614,642.541931 
	C474.175720,644.853577 470.223511,642.696045 466.568909,639.054749 
	C455.799744,628.324585 444.971802,617.653442 433.945129,606.443054 
	C433.640442,606.235046 433.335724,606.027039 432.766876,605.232422 
	C430.891571,603.478699 429.016266,601.724976 426.890564,599.410828 
	C426.268799,598.894470 425.647064,598.378052 424.846771,597.336304 
	C424.281982,596.880676 423.717163,596.425049 422.934082,595.457336 
	C422.632141,595.253296 422.330200,595.049255 421.783081,594.259338 
	C420.241852,592.829712 418.700653,591.400146 416.937500,589.455566 
	C416.633514,589.249207 416.329559,589.042847 415.760223,588.236023 
	C412.555298,585.148193 409.350372,582.060303 405.929291,578.458252 
	C405.628052,578.251343 405.326813,578.044434 404.765656,577.235168 
	C401.905731,574.475342 399.045776,571.715515 395.903229,568.376160 
	C394.946442,567.527710 393.989624,566.679260 392.846924,565.311584 
	C392.279419,564.866150 391.711914,564.420776 390.893494,563.420044 
	C390.276520,562.910156 389.659576,562.400269 389.017578,561.984558 
	C389.017578,561.984558 389.111969,562.008911 388.932007,561.470825 
	C388.631378,561.254395 388.330719,561.038025 387.758942,560.216736 
	C382.072357,554.290955 375.643738,549.377563 366.985870,550.112976 
	C346.871216,551.821472 335.314606,576.598022 347.342682,592.659302 
	C352.376312,599.380737 358.956116,604.944214 365.055511,611.551392 
	C365.360260,611.759460 365.665009,611.967529 366.238403,612.773926 
	C369.773712,616.192078 373.309021,619.610291 377.064880,623.543030 
	C377.367493,623.750488 377.670105,623.957947 378.213654,624.737671 
	C379.435577,625.835266 380.657532,626.932800 382.143158,628.613464 
	C383.085999,629.466858 384.028809,630.320190 385.191620,631.723938 
	C386.072144,632.495117 386.952637,633.266357 388.060028,634.547729 
	C388.362061,634.754517 388.664093,634.961304 389.150299,635.688110 
	C389.717621,636.134583 390.284973,636.581055 391.102661,637.583008 
	C391.720551,638.092773 392.338470,638.602478 392.977356,639.018250 
	C392.977356,639.018250 392.883179,638.998169 393.067474,639.529907 
	C393.381012,639.717224 393.694550,639.904541 394.006409,639.993164 
	C394.006409,639.993164 393.907715,639.994446 394.078217,640.529114 
	C394.386841,640.721497 394.695496,640.913879 394.984955,641.019531 
	C394.984955,641.019531 394.898407,641.039490 395.090790,641.538818 
	C395.489441,641.896973 395.888092,642.255127 396.306671,642.751770 
	C396.306671,642.751770 396.446045,642.763123 396.684937,643.078857 
	C396.854401,643.285400 397.052856,643.458740 397.300507,643.743530 
	C397.300507,643.743530 397.446167,643.754639 397.688568,644.071777 
	C397.859589,644.279907 398.059174,644.455566 398.303589,644.745117 
	C398.303589,644.745117 398.450073,644.760254 398.689423,645.075256 
	C398.858582,645.281982 399.056488,645.456055 399.299469,645.746399 
	C399.299469,645.746399 399.448547,645.761414 399.687317,646.078064 
	C399.856445,646.285889 400.055237,646.459839 400.296204,646.705261 
	C400.296204,646.705261 400.400787,646.723328 400.745667,647.141174 
	C401.156830,647.472778 401.567963,647.804382 402.219788,648.726624 
	C403.772766,650.157593 405.325775,651.588562 407.123138,653.574219 
	C407.736389,654.082947 408.349640,654.591736 408.982391,655.014099 
	C408.982391,655.014099 408.895874,654.995178 409.073914,655.524841 
	C409.374268,655.731750 409.674622,655.938660 410.099823,656.583557 
	C410.278290,656.863647 410.533539,657.008362 411.135223,657.585876 
	C411.772736,658.120789 412.410217,658.655762 413.298920,659.786926 
	C420.119232,666.607605 426.913818,673.454224 433.765900,680.242798 
	C443.810242,690.194153 453.913483,700.085999 463.954193,710.040955 
	C467.569672,713.625488 472.057861,715.287109 476.688660,713.641174 
	C481.392456,711.969299 486.449524,709.824036 489.933807,706.430176 
	C510.191864,686.697937 530.049255,666.553833 550.008484,646.515564 
	C567.371704,629.083557 584.690369,611.607178 602.546936,593.933472 
	C602.759521,593.633240 602.972107,593.333008 603.782959,592.765747 
	C606.865601,589.565735 609.948242,586.365662 613.591492,582.907898 
	C614.105652,582.280945 614.619873,581.654053 615.653687,580.835205 
	C616.110291,580.271118 616.566895,579.707031 617.588013,578.907837 
	C618.101562,578.290039 618.615112,577.672180 619.024292,577.021484 
	C619.024292,577.021484 618.992310,577.126160 619.536926,576.948608 
	C619.753174,576.642822 619.969421,576.337097 620.733276,575.804382 
	C621.500183,574.919983 622.267151,574.035645 623.590210,572.902222 
	C624.099487,572.283936 624.608765,571.665710 625.019958,571.023499 
	C625.019958,571.023499 624.996887,571.121826 625.535583,570.935974 
	C625.731689,570.622314 625.927734,570.308655 626.024109,570.018433 
	C626.024109,570.018433 626.048462,570.117920 626.612366,569.880676 
	C627.128601,569.262451 627.644897,568.644287 628.677734,567.839600 
	C629.128174,567.279175 629.578552,566.718750 630.540771,565.934082 
	C630.745422,565.630798 630.950073,565.327515 631.756592,564.759155 
	C636.846497,559.555054 641.936462,554.350952 647.531616,548.932312 
	C647.896484,548.520386 648.261292,548.108398 648.708984,547.684875 
	C648.708984,547.684875 648.727539,547.603333 649.151245,547.261963 
	C649.485229,546.850220 649.819153,546.438538 650.756287,545.764099 
	C654.179932,542.226562 657.603638,538.689087 661.602844,534.866882 
	C662.451721,533.919617 663.300537,532.972351 664.752258,531.763550 
	C667.510559,528.891663 670.268860,526.019836 673.541748,522.931458 
	C673.746948,522.628906 673.952209,522.326355 674.758179,521.757385 
	C682.181580,514.215454 689.604919,506.673492 697.587341,498.880829 
	C698.106567,498.263672 698.625793,497.646484 699.747131,496.768494 
	C702.174011,494.230286 704.600952,491.692047 707.540649,488.932129 
	C707.747192,488.629761 707.953735,488.327393 708.761658,487.762604 
	C711.517822,484.892181 714.273987,482.021729 717.588989,478.898193 
	C718.103577,478.277252 718.618164,477.656342 719.721130,476.789001 
	C721.156433,475.244934 722.591797,473.700897 724.549988,471.931091 
	C724.915833,471.492615 725.281677,471.054138 725.805481,470.577423 
	C725.805481,470.577423 725.797363,470.415039 726.007996,470.254852 
	C726.007996,470.254852 726.019775,469.990448 726.625183,469.650024 
	C728.097778,465.717407 730.377625,461.885193 730.881531,457.832123 
	C732.074158,448.239319 726.752563,441.215698 719.985352,434.421906 
	C719.652039,434.228943 719.318787,434.035950 719.002258,434.013184 
	C719.002258,434.013184 719.172424,433.996826 718.979126,433.440674 
	C718.649109,433.248047 718.319153,433.055389 717.996826,433.009125 
	C717.996826,433.009125 718.143188,433.001709 717.960815,432.455872 
	C717.637329,432.270691 717.313904,432.085510 717.013611,431.987488 
	C717.013611,431.987488 717.100586,431.963867 716.832397,431.401611 
	C716.301331,431.075531 715.770203,430.749451 715.185425,430.710785 
	C715.185425,430.710785 715.474487,430.754822 715.162170,430.206268 
	C714.771423,430.061859 714.380676,429.917480 714.050171,429.927795 
	C714.050171,429.927795 714.203979,429.865051 713.815674,429.260376 
	C707.230774,425.366180 700.598511,424.354614 693.946289,428.938110 
	C693.946289,428.938110 693.948303,428.866241 693.322083,429.011780 
	C692.514282,429.658386 691.706482,430.304993 690.984985,430.976166 
	C690.984985,430.976166 691.008789,430.889618 690.462952,431.064056 
	C690.240234,431.363922 690.017578,431.663757 689.284241,432.137360 
	C688.840149,432.685638 688.395996,433.233948 687.422302,434.021210 
	C687.203308,434.333496 686.984375,434.645782 686.352905,435.058716 
	C686.087036,435.222412 685.953796,435.460358 685.423096,436.016235 
	C685.205139,436.331116 684.987183,436.646027 684.357605,437.055481 
	C684.085571,437.209106 683.948364,437.442108 683.403870,438.005920 
	C683.202209,438.338776 683.000549,438.671631 683.002930,439.002777 
	C683.002930,439.002777 683.001587,438.798645 682.427551,438.986847 
	C682.193604,439.305328 681.959717,439.623810 681.325867,440.035309 
	C681.068481,440.194916 680.942505,440.426147 680.414612,440.993805 
	C680.231628,441.334625 680.048706,441.675446 680.017761,442.006958 
	C680.017761,442.006958 680.008972,441.854889 679.445557,442.022980 
	C679.222961,442.336884 679.000305,442.650787 678.230835,443.171753 
	C677.473022,444.044403 676.715210,444.917053 675.428040,446.033722 
	C675.235046,446.360474 675.042053,446.687225 675.012878,447.012482 
	C675.012878,447.012482 675.011902,446.848602 674.450195,447.027710 
	C674.220825,447.337677 673.991394,447.647675 673.350525,448.055267 
	C673.084595,448.217499 672.952026,448.454407 672.417969,449.014130 
	C672.191284,449.328369 671.964600,449.642578 671.328979,450.052460 
	C671.063416,450.212311 670.931824,450.447205 670.394836,451.008392 
	C670.190369,451.338470 669.985840,451.668579 669.985657,451.968079 
	C669.985657,451.968079 669.954102,451.763855 669.396667,451.984283 
	C669.195557,452.319153 668.994446,452.654022 668.983643,452.980530 
	C668.983643,452.980530 668.974548,452.790192 668.416626,452.997009 
	C668.221619,453.331238 668.026672,453.665466 667.997437,453.993713 
	C667.997437,453.993713 667.991089,453.828003 667.432068,454.017242 
	C667.233093,454.344116 667.034119,454.671021 666.997070,454.994659 
	C666.997070,454.994659 666.993408,454.832794 666.433167,455.017975 
	C666.226135,455.341522 666.019165,455.665070 665.987000,455.989594 
	C665.987000,455.989594 665.987427,455.814728 665.441589,456.015198 
	C665.231079,456.332794 665.020569,456.650360 664.298157,457.144318 
	C663.849487,457.692566 663.400818,458.240814 662.425354,459.031708 
	C662.226807,459.354645 662.028320,459.677551 661.993652,459.991638 
	C661.993652,459.991638 661.984497,459.827759 661.437805,460.030762 
	C661.234619,460.351746 661.031372,460.672760 660.993164,460.996643 
	C660.993164,460.996643 660.995728,460.831696 660.446899,461.025726 
	C660.227051,461.336212 660.007141,461.646698 659.192932,462.228271 
	C656.113770,465.430786 653.034668,468.633270 649.399353,472.097015 
	C648.883179,472.720673 648.367004,473.344330 647.331543,474.157532 
	C646.877808,474.721558 646.424072,475.285583 645.456299,476.067291 
	C645.250549,476.369904 645.044800,476.672485 644.268860,477.216278 
	C643.171509,478.431427 642.074158,479.646576 640.477417,481.058533 
	C640.117126,481.456451 639.756836,481.854370 639.238403,482.269806 
	C639.238403,482.269806 639.223572,482.428223 638.824402,482.760834 
	C638.516113,483.159210 638.207886,483.557617 637.966553,483.965820 
	C637.966553,483.965820 637.955200,483.899078 637.394958,484.132446 
	C636.883667,484.746460 636.372375,485.360474 635.259399,486.240326 
	C632.496826,489.108582 629.734314,491.976837 626.460449,495.069183 
	C626.254944,495.371643 626.049500,495.674103 625.328247,496.164398 
	C624.876221,496.722748 624.424255,497.281097 623.413879,498.099915 
	C622.896240,498.725067 622.378662,499.350250 621.422058,500.095245 
	C621.140259,500.269409 620.990723,500.521881 620.410889,501.103302 
	C619.893494,501.727356 619.376038,502.351379 618.418762,503.098206 
	C618.136658,503.274689 617.988831,503.529205 617.475586,504.064819 
	C617.114136,504.467010 616.752686,504.869171 616.265137,505.286621 
	C616.265137,505.286621 616.249023,505.412567 615.833984,505.753387 
	C615.507446,506.160858 615.180908,506.568329 614.261353,507.234161 
	C612.499329,509.117706 610.737244,511.001221 608.481506,513.093201 
	C608.118591,513.491638 607.755615,513.890076 607.237488,514.305481 
	C607.237488,514.305481 607.222839,514.460876 606.915405,514.684021 
	C606.716431,514.845825 606.550842,515.036560 606.232666,515.275879 
z"/>
<path fill="#FFFDF8" opacity="1.000000" stroke="none" 
	d="
M683.228394,147.116180 
	C708.401184,140.445953 733.651306,137.213547 759.906372,135.902969 
	C759.563293,142.655182 759.538452,149.081924 758.862366,155.439392 
	C755.641174,185.725952 747.404846,214.491226 732.287903,241.102005 
	C707.674194,284.430115 670.233887,311.058746 623.036438,324.962860 
	C593.306091,333.721191 561.942993,335.804932 539.058716,335.443573 
	C539.058716,327.545868 538.469116,319.582092 539.170227,311.733612 
	C541.201843,288.992615 546.513794,267.024078 556.569336,246.392120 
	C578.786926,200.806290 615.309692,171.506775 662.135254,154.059570 
	C668.939514,151.524292 675.925903,149.477814 683.228394,147.116180 
z"/>
<path fill="#FFFDF7" opacity="1.000000" stroke="none" 
	d="
M478.994781,295.071777 
	C461.985992,265.835297 439.645416,242.565323 409.565948,227.199875 
	C405.017242,224.876236 404.181030,221.358688 407.588806,217.467209 
	C414.272064,209.835251 421.219696,202.421371 428.362183,195.218918 
	C429.473450,194.098297 432.365082,193.933319 434.138763,194.413910 
	C443.947784,197.071838 452.184357,202.636108 459.707092,209.274475 
	C481.041840,228.101151 494.780151,251.816238 504.296143,278.329285 
	C513.743652,304.651428 518.114380,331.846222 518.926636,359.684296 
	C519.015015,362.714966 518.135498,365.773895 517.596680,369.585571 
	C511.022705,365.535583 505.607635,362.904236 503.461639,354.968842 
	C497.843048,334.192627 489.906921,314.175720 478.994781,295.071777 
z"/>
<path fill="#FF8408" opacity="1.000000" stroke="none" 
	d="
M231.343597,450.171326 
	C221.333954,480.597870 218.824432,512.051636 221.134048,544.006836 
	C221.693878,551.752380 222.976852,559.445618 223.879868,567.580933 
	C223.208817,566.586975 222.120789,565.203430 222.032166,563.758606 
	C220.937851,545.922119 219.101730,528.069519 219.246887,510.235596 
	C219.399475,491.488495 222.958267,473.006958 228.545090,455.026001 
	C229.064148,453.355347 230.196594,451.875275 231.343597,450.171326 
z"/>
<path fill="#FF9A01" opacity="1.000000" stroke="none" 
	d="
M505.964600,616.806580 
	C508.042877,614.612305 510.121155,612.418030 512.717651,609.928040 
	C513.478455,609.355896 513.721069,609.079407 513.963684,608.802917 
	C516.039307,606.613525 518.114929,604.424194 520.710327,601.931763 
	C521.472595,601.343628 521.715088,601.058594 521.957642,600.773560 
	C521.953796,600.466370 522.078735,600.226135 522.770142,599.839355 
	C523.474182,599.357727 523.740540,599.089722 524.006958,598.821655 
	C524.006958,598.821655 524.000244,599.007080 524.125000,598.826904 
	C524.497803,598.368652 524.745850,598.090576 524.993896,597.812500 
	C524.993896,597.812439 524.999084,597.996277 525.124451,597.821533 
	C525.498230,597.369019 525.746643,597.091370 525.995056,596.813660 
	C525.995056,596.813660 526.000000,596.997314 526.125061,596.822083 
	C526.498535,596.369263 526.746887,596.091614 526.995300,595.814026 
	C526.995300,595.814026 527.000122,595.997559 527.125122,595.822266 
	C527.498657,595.369507 527.747253,595.092102 527.995850,594.814758 
	C527.995850,594.814758 528.002014,594.998047 528.125732,594.818726 
	C528.494446,594.354370 528.739380,594.069336 528.984314,593.784363 
	C528.984314,593.784363 528.991211,593.987366 529.111389,593.813721 
	C529.486450,593.362854 529.741333,593.085571 529.996216,592.808350 
	C529.996216,592.808350 530.002197,592.996460 530.124084,592.819519 
	C530.495544,592.364014 530.745117,592.085449 530.994629,591.806885 
	C530.994629,591.806885 531.003296,591.996277 531.123230,591.814392 
	C531.487183,591.343140 531.731201,591.053711 531.975220,590.764282 
	C531.975220,590.764343 531.984619,590.980530 532.100891,590.803467 
	C532.472839,590.341492 532.728516,590.056519 532.984131,589.771484 
	C532.984131,589.771484 532.993713,589.986633 533.106567,589.804138 
	C533.469482,589.329285 533.719543,589.036865 533.969604,588.744446 
	C533.969604,588.744446 533.980408,588.974548 534.092041,588.795837 
	C534.459534,588.326355 534.715515,588.035522 534.971436,587.744751 
	C534.971436,587.744751 535.008728,587.972961 535.109192,587.785706 
	C535.447388,587.282471 535.685120,586.966492 535.922913,586.650574 
	C549.066223,573.174988 562.209473,559.699341 575.751831,546.120972 
	C576.150940,546.018250 576.317505,545.849731 576.317505,545.849731 
	C576.317505,545.849731 576.191406,545.578552 576.191406,545.578552 
	C576.191406,545.578552 576.193237,545.370300 576.531616,545.293091 
	C577.171814,545.035706 577.331909,544.769958 577.350342,544.418762 
	C577.350342,544.418762 577.358948,544.760803 577.610718,544.511230 
	C578.030579,543.978516 578.198730,543.695374 578.366943,543.412231 
	C578.366943,543.412231 578.776855,543.651001 578.819702,543.456299 
	C579.030457,542.978333 579.198364,542.695129 579.366333,542.411926 
	C579.519653,542.577637 579.672974,542.743286 579.841370,542.584106 
	C580.018860,541.978638 580.181274,541.698059 580.343750,541.417480 
	C580.343750,541.417480 580.592285,541.706909 580.724976,541.476746 
	C581.159668,541.053711 581.319702,540.778320 581.337708,540.420349 
	C581.337708,540.420349 581.527039,540.672546 581.693420,540.460510 
	C582.164185,540.056580 582.325928,539.781006 582.345093,539.421753 
	C582.345093,539.421753 582.586487,539.664307 582.716492,539.457764 
	C583.140015,539.058167 583.289307,538.786072 583.294250,538.434814 
	C583.294250,538.434814 583.301880,538.312622 583.696411,538.311157 
	C584.723633,537.507568 585.356262,536.705566 585.988953,535.903503 
	C586.009155,535.562988 586.163574,535.301758 586.949219,534.956787 
	C587.725769,534.330933 588.005310,533.868164 588.284912,533.405396 
	C588.284912,533.405396 588.302185,533.333435 588.630737,533.277100 
	C589.298157,532.771912 589.637024,532.323059 589.975830,531.874268 
	C590.754883,530.983032 591.533936,530.091736 592.803345,528.939087 
	C593.530396,528.423645 593.767029,528.169617 594.003662,527.915649 
	C594.003662,527.915649 594.003357,528.004211 594.161621,527.842163 
	C594.547180,527.421082 594.774536,527.161987 595.001892,526.902954 
	C595.001892,526.902954 594.989441,526.981018 595.252930,526.887085 
	C595.996826,526.160400 596.477112,525.527588 596.957397,524.894775 
	C596.957397,524.894775 596.963562,524.963379 597.199341,524.874756 
	C597.703491,524.332764 597.971924,523.879333 598.240356,523.425964 
	C598.240356,523.425964 598.259216,523.258179 598.548462,523.214294 
	C599.104614,523.013794 599.228821,522.780945 599.210266,522.471802 
	C599.210266,522.471802 599.219421,522.295227 599.596436,522.241272 
	C600.308044,521.744507 600.642761,521.301697 600.977417,520.858826 
	C601.432129,520.293274 601.886780,519.727783 602.877014,518.979309 
	C603.694275,518.335327 603.976013,517.874268 604.257812,517.413147 
	C604.257751,517.413147 604.274719,517.266663 604.556763,517.220703 
	C605.109680,517.015259 605.236206,516.778503 605.218384,516.464478 
	C605.218384,516.464478 605.230469,516.274658 605.534424,516.224976 
	C606.110291,516.015381 606.237488,515.777710 606.219910,515.462463 
	C606.219910,515.462463 606.232666,515.275879 606.535767,515.226318 
	C607.111206,515.015747 607.239197,514.777100 607.222839,514.460876 
	C607.222839,514.460876 607.237488,514.305481 607.603271,514.252441 
	C608.304443,513.761169 608.639832,513.322937 608.975220,512.884766 
	C610.737244,511.001221 612.499329,509.117706 614.832397,507.014954 
	C615.685303,506.334686 615.967163,505.873657 616.249023,505.412598 
	C616.249023,505.412567 616.265137,505.286621 616.617676,505.236145 
	C617.305237,504.744324 617.640198,504.303009 617.975220,503.861694 
	C617.988831,503.529205 618.136658,503.274689 618.949829,502.947449 
	C619.978455,502.148712 620.476013,501.500702 620.973511,500.852692 
	C620.990723,500.521881 621.140259,500.269409 621.952881,499.944702 
	C622.979919,499.142578 623.476074,498.490997 623.972290,497.839417 
	C624.424255,497.281097 624.876221,496.722748 625.800781,495.909729 
	C626.506104,495.385040 626.738953,495.115051 626.971802,494.845093 
	C629.734314,491.976837 632.496826,489.108582 635.867249,486.021362 
	C636.968445,485.167938 637.461853,484.533508 637.955200,483.899078 
	C637.955200,483.899078 637.966553,483.965820 638.198853,483.871460 
	C638.695251,483.327454 638.959412,482.877838 639.223572,482.428223 
	C639.223572,482.428223 639.238403,482.269806 639.605225,482.222229 
	C640.306946,481.737030 640.641907,481.299377 640.976868,480.861694 
	C642.074158,479.646576 643.171509,478.431427 644.768921,476.935791 
	C645.502747,476.386749 645.736572,476.118195 645.970398,475.849609 
	C646.424072,475.285583 646.877808,474.721558 647.903564,473.973877 
	C648.968872,473.138733 649.462158,472.487244 649.955444,471.835754 
	C653.034668,468.633270 656.113770,465.430786 659.716064,461.933258 
	C660.491394,461.369415 660.743591,461.100555 660.995728,460.831726 
	C660.995728,460.831696 660.993164,460.996643 661.126831,460.824341 
	C661.501831,460.377289 661.743164,460.102509 661.984497,459.827759 
	C661.984497,459.827759 661.993652,459.991638 662.124756,459.817871 
	C662.487976,459.359131 662.720032,459.074127 662.952148,458.789093 
	C663.400818,458.240814 663.849487,457.692566 664.777893,456.894165 
	C665.500916,456.367615 665.744202,456.091187 665.987427,455.814758 
	C665.987427,455.814728 665.987000,455.989594 666.120483,455.821045 
	C666.500427,455.379272 666.746887,455.106018 666.993408,454.832764 
	C666.993408,454.832794 666.997070,454.994659 667.131470,454.824402 
	C667.507629,454.378754 667.749390,454.103394 667.991089,453.828003 
	C667.991089,453.828003 667.997437,453.993713 668.129395,453.819031 
	C668.499084,453.359619 668.736816,453.074890 668.974548,452.790192 
	C668.974548,452.790192 668.983643,452.980530 669.109070,452.806824 
	C669.474365,452.343384 669.714233,452.053619 669.954102,451.763855 
	C669.954102,451.763855 669.985657,451.968079 670.099976,451.798187 
	C670.454285,451.337921 670.694275,451.047546 670.934326,450.757141 
	C670.931824,450.447205 671.063416,450.212311 671.763916,449.835754 
	C672.450134,449.334686 672.701477,449.050323 672.952820,448.765930 
	C672.952026,448.454407 673.084595,448.217499 673.785400,447.846008 
	C674.484131,447.374023 674.748047,447.111298 675.011902,446.848602 
	C675.011902,446.848602 675.012878,447.012482 675.137573,446.829163 
	C675.493958,446.360443 675.725647,446.075043 675.957397,445.789673 
	C676.715210,444.917053 677.473022,444.044403 678.732788,442.909973 
	C679.492859,442.383789 679.750916,442.119354 680.009033,441.854919 
	C680.008972,441.854889 680.017761,442.006958 680.146606,441.819092 
	C680.499634,441.330475 680.723755,441.029694 680.947876,440.728943 
	C680.942505,440.426147 681.068481,440.194916 681.761719,439.825623 
	C682.465515,439.343506 682.733582,439.071075 683.001587,438.798645 
	C683.001587,438.798645 683.002930,439.002777 683.116821,438.817810 
	C683.469116,438.340057 683.707520,438.047272 683.945862,437.754517 
	C683.948364,437.442108 684.085571,437.209106 684.789429,436.839874 
	C685.465271,436.340363 685.709229,436.056458 685.953186,435.772583 
	C685.953796,435.460358 686.087036,435.222412 686.784912,434.841675 
	C687.461853,434.343842 687.706848,434.063019 687.951904,433.782227 
	C688.395996,433.233948 688.840149,432.685638 689.765076,431.898987 
	C690.500183,431.403595 690.754517,431.146606 691.008789,430.889618 
	C691.008789,430.889618 690.984985,430.976166 691.287903,430.946045 
	C692.376648,430.232727 693.162476,429.549469 693.948303,428.866241 
	C693.948303,428.866241 693.946289,428.938110 694.319946,428.928711 
	C701.324463,426.605957 707.790100,427.702301 714.203979,429.865051 
	C714.203979,429.865051 714.050171,429.927795 714.242310,430.050659 
	C714.781128,430.367279 715.127808,430.561066 715.474487,430.754822 
	C715.474487,430.754822 715.185425,430.710785 715.358276,430.853821 
	C716.054260,431.319183 716.577393,431.641541 717.100586,431.963867 
	C717.100586,431.963867 717.013611,431.987488 717.173950,432.148163 
	C717.603882,432.539795 717.873535,432.770752 718.143188,433.001709 
	C718.143188,433.001709 717.996826,433.009125 718.170715,433.144409 
	C718.620544,433.518768 718.896484,433.757782 719.172424,433.996826 
	C719.172424,433.996826 719.002258,434.013184 719.182922,434.136292 
	C719.657471,434.491089 719.951416,434.722748 720.245300,434.954407 
	C726.752563,441.215698 732.074158,448.239319 730.881531,457.832123 
	C730.377625,461.885193 728.097778,465.717407 726.222839,469.796021 
	C725.820496,469.942047 725.665588,470.139740 725.665588,470.139740 
	C725.665588,470.139740 725.797363,470.415039 725.797363,470.415039 
	C725.797363,470.415039 725.805481,470.577423 725.426880,470.661743 
	C724.707886,471.216309 724.367493,471.686584 724.027100,472.156860 
	C722.591797,473.700897 721.156433,475.244934 719.117554,477.001495 
	C718.019348,477.859741 717.524719,478.505524 717.030151,479.151276 
	C714.273987,482.021729 711.517822,484.892181 708.246887,488.055542 
	C707.497375,488.616913 707.262573,488.885376 707.027832,489.153839 
	C704.600952,491.692047 702.174011,494.230286 699.136353,496.987061 
	C698.026489,497.847595 697.527405,498.489563 697.028259,499.131531 
	C689.604919,506.673492 682.181580,514.215454 674.243958,522.051331 
	C673.495544,522.612793 673.261353,522.880371 673.027161,523.147949 
	C670.268860,526.019836 667.510559,528.891663 664.084778,531.924683 
	C662.620605,533.107788 661.823975,534.129639 661.027283,535.151550 
	C657.603638,538.689087 654.179932,542.226562 650.176636,545.986328 
	C649.307190,546.673523 649.017395,547.138428 648.727539,547.603333 
	C648.727539,547.603333 648.708984,547.684875 648.374390,547.740356 
	C647.701965,548.246155 647.364197,548.696472 647.026367,549.146851 
	C641.936462,554.350952 636.846497,559.555054 631.242676,565.054626 
	C630.495483,565.619507 630.262268,565.888916 630.028992,566.158325 
	C629.578552,566.718750 629.128174,567.279175 628.108398,568.016479 
	C627.042175,568.834900 626.545288,569.476379 626.048462,570.117920 
	C626.048462,570.117920 626.024109,570.018433 625.866211,570.174316 
	C625.471252,570.594116 625.234070,570.857971 624.996887,571.121826 
	C624.996887,571.121826 625.019958,571.023499 624.759888,571.121094 
	C624.011230,571.862854 623.522644,572.507019 623.034058,573.151245 
	C622.267151,574.035645 621.500183,574.919983 620.237793,576.074280 
	C619.492371,576.604858 619.242371,576.865540 618.992310,577.126160 
	C618.992310,577.126160 619.024292,577.021484 618.765137,577.119202 
	C618.011780,577.858887 617.517639,578.500916 617.023560,579.142883 
	C616.566895,579.707031 616.110291,580.271118 615.082581,581.021606 
	C614.017944,581.860535 613.524414,582.513123 613.030884,583.165649 
	C609.948242,586.365662 606.865601,589.565735 603.266602,593.059204 
	C602.509705,593.618530 602.269226,593.884460 602.028687,594.150391 
	C584.690369,611.607178 567.371704,629.083557 550.008484,646.515564 
	C530.049255,666.553833 510.191864,686.697937 489.933807,706.430176 
	C486.449524,709.824036 481.392456,711.969299 476.688660,713.641174 
	C472.057861,715.287109 467.569672,713.625488 463.954193,710.040955 
	C453.913483,700.085999 443.810242,690.194153 433.765900,680.242798 
	C426.913818,673.454224 420.119232,666.607605 413.069855,659.172913 
	C412.182373,658.045166 411.523956,657.531494 410.865540,657.017761 
	C410.533539,657.008362 410.278290,656.863647 409.882629,656.150696 
	C409.408936,655.476929 409.152405,655.236084 408.895874,654.995178 
	C408.895874,654.995178 408.982391,655.014099 408.883972,654.752197 
	C408.149933,654.000000 407.514343,653.509766 406.878754,653.019531 
	C405.325775,651.588562 403.772766,650.157593 402.006805,648.155396 
	C401.329498,647.297180 400.865143,647.010254 400.400787,646.723328 
	C400.400787,646.723328 400.296204,646.705261 400.243134,646.435425 
	C400.022003,645.885864 399.774811,645.751160 399.448547,645.761414 
	C399.448547,645.761414 399.299469,645.746399 399.244568,645.455261 
	C399.022125,644.884949 398.775604,644.750305 398.450073,644.760254 
	C398.450073,644.760254 398.303589,644.745117 398.246674,644.454468 
	C398.020630,643.884460 397.772766,643.748047 397.446167,643.754639 
	C397.446167,643.754639 397.300507,643.743530 397.243622,643.454712 
	C397.018463,642.887146 396.771576,642.752930 396.446045,642.763123 
	C396.446045,642.763123 396.306671,642.751770 396.255951,642.395752 
	C395.769623,641.706299 395.334015,641.372925 394.898407,641.039490 
	C394.898407,641.039490 394.984955,641.019531 394.832642,640.857300 
	C394.422760,640.461487 394.165253,640.227966 393.907715,639.994446 
	C393.907715,639.994446 394.006409,639.993164 393.840454,639.839722 
	C393.410736,639.456848 393.146973,639.227539 392.883179,638.998169 
	C392.883179,638.998169 392.977356,639.018250 392.880066,638.756592 
	C392.139282,638.005798 391.495789,637.516663 390.852295,637.027527 
	C390.284973,636.581055 389.717621,636.134583 388.891846,635.217896 
	C388.366638,634.510925 388.099884,634.274231 387.833160,634.037537 
	C386.952637,633.266357 386.072144,632.495117 385.021057,631.105164 
	C383.860138,629.667725 382.869812,628.849060 381.879486,628.030396 
	C380.657532,626.932800 379.435577,625.835266 377.933289,624.235291 
	C377.383423,623.498108 377.113861,623.263245 376.844299,623.028442 
	C373.309021,619.610291 369.773712,616.192078 365.940613,612.259644 
	C365.372833,611.508240 365.102875,611.271240 364.832947,611.034180 
	C358.956116,604.944214 352.376312,599.380737 347.342682,592.659302 
	C335.314606,576.598022 346.871216,551.821472 366.985870,550.112976 
	C375.643738,549.377563 382.072357,554.290955 388.050934,560.737793 
	C388.599274,561.508850 388.855621,561.758911 389.111969,562.008911 
	C389.111969,562.008911 389.017578,561.984558 389.117065,562.245483 
	C389.859161,562.996094 390.501770,563.485718 391.144409,563.975342 
	C391.711914,564.420776 392.279419,564.866150 392.967560,565.940796 
	C394.120728,567.365295 395.153290,568.160522 396.185822,568.955750 
	C399.045776,571.715515 401.905731,574.475342 405.056763,577.749695 
	C405.613739,578.500305 405.879608,578.736389 406.145477,578.972473 
	C409.350372,582.060303 412.555298,585.148193 416.053650,588.752319 
	C416.617859,589.502625 416.888641,589.736572 417.159424,589.970520 
	C418.700653,591.400146 420.241852,592.829712 422.069092,594.762817 
	C422.620850,595.500671 422.886597,595.735046 423.152344,595.969421 
	C423.717163,596.425049 424.281982,596.880676 425.026123,597.908630 
	C425.850677,598.977722 426.495850,599.474487 427.140991,599.971252 
	C429.016266,601.724976 430.891571,603.478699 433.062988,605.740112 
	C433.628357,606.484924 433.897644,606.722046 434.166901,606.959167 
	C444.971802,617.653442 455.799744,628.324585 466.568909,639.054749 
	C470.223511,642.696045 474.175720,644.853577 479.863525,642.438354 
	C480.622559,642.267029 480.820892,642.082520 480.924438,641.781250 
	C480.924438,641.781250 480.965576,641.952148 481.100952,641.804199 
	C481.493683,641.392578 481.750977,641.128967 482.008270,640.865295 
	C482.008270,640.865295 482.007294,641.008606 482.144470,640.836609 
	C482.522461,640.397766 482.763214,640.130920 483.004028,639.864136 
	C483.004028,639.864136 483.009460,640.006531 483.143829,639.832153 
	C483.508087,639.380554 483.737976,639.103271 483.967896,638.825989 
	C485.393402,637.291931 486.818939,635.757935 488.750854,633.931519 
	C489.492859,633.362122 489.728485,633.085205 489.964142,632.808289 
	C492.044891,630.618713 494.125641,628.429138 496.721802,625.936646 
	C497.478607,625.354675 497.720032,625.075623 497.961487,624.796570 
	C500.041077,622.607300 502.120667,620.418030 504.720703,617.935547 
	C505.482300,617.363708 505.723450,617.085144 505.964600,616.806580 
z"/>
<path fill="#FE8201" opacity="1.000000" stroke="none" 
	d="
M714.009827,429.562714 
	C707.790100,427.702301 701.324463,426.605957 694.284058,428.926208 
	C700.598511,424.354614 707.230774,425.366180 714.009827,429.562714 
z"/>
<path fill="#FE8402" opacity="1.000000" stroke="none" 
	d="
M661.315063,535.009216 
	C661.823975,534.129639 662.620605,533.107788 663.783325,532.055481 
	C663.300537,532.972351 662.451721,533.919617 661.315063,535.009216 
z"/>
<path fill="#FE8401" opacity="1.000000" stroke="none" 
	d="
M396.044525,568.665955 
	C395.153290,568.160522 394.120728,567.365295 393.060516,566.200439 
	C393.989624,566.679260 394.946442,567.527710 396.044525,568.665955 
z"/>
<path fill="#FE8402" opacity="1.000000" stroke="none" 
	d="
M382.011322,628.321899 
	C382.869812,628.849060 383.860138,629.667725 384.911041,630.829956 
	C384.028809,630.320190 383.085999,629.466858 382.011322,628.321899 
z"/>
<path fill="#FE8201" opacity="1.000000" stroke="none" 
	d="
M693.635193,428.939026 
	C693.162476,429.549469 692.376648,430.232727 691.244751,430.933777 
	C691.706482,430.304993 692.514282,429.658386 693.635193,428.939026 
z"/>
<path fill="#FE8504" opacity="1.000000" stroke="none" 
	d="
M585.715820,536.018921 
	C585.356262,536.705566 584.723633,537.507568 583.756592,538.299927 
	C584.095764,537.571655 584.769226,536.852966 585.715820,536.018921 
z"/>
<path fill="#FE8401" opacity="1.000000" stroke="none" 
	d="
M391.018951,563.697693 
	C390.501770,563.485718 389.859161,562.996094 389.129578,562.198425 
	C389.659576,562.400269 390.276520,562.910156 391.018951,563.697693 
z"/>
<path fill="#FE8402" opacity="1.000000" stroke="none" 
	d="
M626.330444,569.999268 
	C626.545288,569.476379 627.042175,568.834900 627.850098,568.109741 
	C627.644897,568.644287 627.128601,569.262451 626.330444,569.999268 
z"/>
<path fill="#FE8402" opacity="1.000000" stroke="none" 
	d="
M623.312134,573.026733 
	C623.522644,572.507019 624.011230,571.862854 624.808960,571.133057 
	C624.608765,571.665710 624.099487,572.283936 623.312134,573.026733 
z"/>
<path fill="#FE8504" opacity="1.000000" stroke="none" 
	d="
M596.679565,525.010986 
	C596.477112,525.527588 595.996826,526.160400 595.213928,526.880554 
	C595.408142,526.354309 595.904907,525.740723 596.679565,525.010986 
z"/>
<path fill="#FE8401" opacity="1.000000" stroke="none" 
	d="
M427.015778,599.691040 
	C426.495850,599.474487 425.850677,598.977722 425.115417,598.171326 
	C425.647064,598.378052 426.268799,598.894470 427.015778,599.691040 
z"/>
<path fill="#FE8504" opacity="1.000000" stroke="none" 
	d="
M620.692200,500.977997 
	C620.476013,501.500702 619.978455,502.148712 619.169800,502.886047 
	C619.376038,502.351379 619.893494,501.727356 620.692200,500.977997 
z"/>
<path fill="#FE8504" opacity="1.000000" stroke="none" 
	d="
M623.693054,497.969666 
	C623.476074,498.490997 622.979919,499.142578 622.172363,499.884796 
	C622.378662,499.350250 622.896240,498.725067 623.693054,497.969666 
z"/>
<path fill="#FE8402" opacity="1.000000" stroke="none" 
	d="
M697.307800,499.006165 
	C697.527405,498.489563 698.026489,497.847595 698.835266,497.117462 
	C698.625793,497.646484 698.106567,498.263672 697.307800,499.006165 
z"/>
<path fill="#FE8504" opacity="1.000000" stroke="none" 
	d="
M637.675049,484.015747 
	C637.461853,484.533508 636.968445,485.167938 636.168091,485.888428 
	C636.372375,485.360474 636.883667,484.746460 637.675049,484.015747 
z"/>
<path fill="#FE8402" opacity="1.000000" stroke="none" 
	d="
M613.311157,583.036743 
	C613.524414,582.513123 614.017944,581.860535 614.822754,581.117554 
	C614.619873,581.654053 614.105652,582.280945 613.311157,583.036743 
z"/>
<path fill="#FE8402" opacity="1.000000" stroke="none" 
	d="
M717.309570,479.024719 
	C717.524719,478.505524 718.019348,477.859741 718.823364,477.124695 
	C718.618164,477.656342 718.103577,478.277252 717.309570,479.024719 
z"/>
<path fill="#FE8504" opacity="1.000000" stroke="none" 
	d="
M649.677368,471.966370 
	C649.462158,472.487244 648.968872,473.138733 648.163208,473.879089 
	C648.367004,473.344330 648.883179,472.720673 649.677368,471.966370 
z"/>
<path fill="#FE8402" opacity="1.000000" stroke="none" 
	d="
M617.305786,579.025391 
	C617.517639,578.500916 618.011780,577.858887 618.817322,577.135620 
	C618.615112,577.672180 618.101562,578.290039 617.305786,579.025391 
z"/>
<path fill="#FE8402" opacity="1.000000" stroke="none" 
	d="
M390.977478,637.305298 
	C391.495789,637.516663 392.139282,638.005798 392.869568,638.803589 
	C392.338470,638.602478 391.720551,638.092773 390.977478,637.305298 
z"/>
<path fill="#FE8402" opacity="1.000000" stroke="none" 
	d="
M411.000366,657.301819 
	C411.523956,657.531494 412.182373,658.045166 412.944244,658.874756 
	C412.410217,658.655762 411.772736,658.120789 411.000366,657.301819 
z"/>
<path fill="#FE8402" opacity="1.000000" stroke="none" 
	d="
M407.000946,653.296875 
	C407.514343,653.509766 408.149933,654.000000 408.874207,654.795349 
	C408.349640,654.591736 407.736389,654.082947 407.000946,653.296875 
z"/>
<path fill="#FE8402" opacity="1.000000" stroke="none" 
	d="
M394.994598,641.289185 
	C395.334015,641.372925 395.769623,641.706299 396.245972,642.326538 
	C395.888092,642.255127 395.489441,641.896973 394.994598,641.289185 
z"/>
<path fill="#FE8504" opacity="1.000000" stroke="none" 
	d="
M589.721191,531.977417 
	C589.637024,532.323059 589.298157,532.771912 588.667236,533.270874 
	C588.738892,532.907593 589.102722,532.494080 589.721191,531.977417 
z"/>
<path fill="#FE8504" opacity="1.000000" stroke="none" 
	d="
M588.075378,533.574646 
	C588.005310,533.868164 587.725769,534.330933 587.174561,534.890259 
	C587.223877,534.572449 587.544861,534.158142 588.075378,533.574646 
z"/>
<path fill="#FE8504" opacity="1.000000" stroke="none" 
	d="
M598.037231,523.591553 
	C597.971924,523.879333 597.703491,524.332764 597.165039,524.871948 
	C597.208008,524.557556 597.521057,524.157410 598.037231,523.591553 
z"/>
<path fill="#FE8504" opacity="1.000000" stroke="none" 
	d="
M600.727173,520.961182 
	C600.642761,521.301697 600.308044,521.744507 599.684082,522.229736 
	C599.755432,521.869324 600.116150,521.466431 600.727173,520.961182 
z"/>
<path fill="#FE8504" opacity="1.000000" stroke="none" 
	d="
M604.050415,517.583984 
	C603.976013,517.874268 603.694275,518.335327 603.138550,518.887451 
	C603.190735,518.570679 603.516846,518.162781 604.050415,517.583984 
z"/>
<path fill="#FE8504" opacity="1.000000" stroke="none" 
	d="
M608.728333,512.988953 
	C608.639832,513.322937 608.304443,513.761169 607.680847,514.243896 
	C607.755615,513.890076 608.118591,513.491638 608.728333,512.988953 
z"/>
<path fill="#FE8504" opacity="1.000000" stroke="none" 
	d="
M616.041504,505.583008 
	C615.967163,505.873657 615.685303,506.334686 615.128906,506.885773 
	C615.180908,506.568329 615.507446,506.160858 616.041504,505.583008 
z"/>
<path fill="#FE8504" opacity="1.000000" stroke="none" 
	d="
M617.725403,503.963257 
	C617.640198,504.303009 617.305237,504.744324 616.680725,505.228516 
	C616.752686,504.869171 617.114136,504.467010 617.725403,503.963257 
z"/>
<path fill="#FE8402" opacity="1.000000" stroke="none" 
	d="
M648.939392,547.432617 
	C649.017395,547.138428 649.307190,546.673523 649.875061,546.117676 
	C649.819153,546.438538 649.485229,546.850220 648.939392,547.432617 
z"/>
<path fill="#FE8402" opacity="1.000000" stroke="none" 
	d="
M647.278992,549.039551 
	C647.364197,548.696472 647.701965,548.246155 648.332947,547.746094 
	C648.261292,548.108398 647.896484,548.520386 647.278992,549.039551 
z"/>
<path fill="#FE8504" opacity="1.000000" stroke="none" 
	d="
M639.023987,482.594543 
	C638.959412,482.877838 638.695251,483.327454 638.165405,483.866547 
	C638.207886,483.557617 638.516113,483.159210 639.023987,482.594543 
z"/>
<path fill="#FE8201" opacity="1.000000" stroke="none" 
	d="
M716.966492,431.682739 
	C716.577393,431.641541 716.054260,431.319183 715.385132,430.710083 
	C715.770203,430.749451 716.301331,431.075531 716.966492,431.682739 
z"/>
<path fill="#FE8504" opacity="1.000000" stroke="none" 
	d="
M640.727173,480.960144 
	C640.641907,481.299377 640.306946,481.737030 639.684326,482.213501 
	C639.756836,481.854370 640.117126,481.456451 640.727173,480.960144 
z"/>
<path fill="#FE8402" opacity="1.000000" stroke="none" 
	d="
M400.573242,646.932251 
	C400.865143,647.010254 401.329498,647.297180 401.886475,647.860046 
	C401.567963,647.804382 401.156830,647.472778 400.573242,646.932251 
z"/>
<path fill="#FE8402" opacity="1.000000" stroke="none" 
	d="
M724.288574,472.043976 
	C724.367493,471.686584 724.707886,471.216309 725.347900,470.680847 
	C725.281677,471.054138 724.915833,471.492615 724.288574,472.043976 
z"/>
<path fill="#FE8504" opacity="1.000000" stroke="none" 
	d="
M579.174072,542.552124 
	C579.198364,542.695129 579.030457,542.978333 578.618164,543.342529 
	C578.526611,543.138306 578.729248,542.894531 579.174072,542.552124 
z"/>
<path fill="#FE8401" opacity="1.000000" stroke="none" 
	d="
M417.048462,589.713013 
	C416.888641,589.736572 416.617859,589.502625 416.186340,589.052612 
	C416.329559,589.042847 416.633514,589.249207 417.048462,589.713013 
z"/>
<path fill="#FE8402" opacity="1.000000" stroke="none" 
	d="
M398.569763,644.917725 
	C398.775604,644.750305 399.022125,644.884949 399.236389,645.380737 
	C399.056488,645.456055 398.858582,645.281982 398.569763,644.917725 
z"/>
<path fill="#FE8201" opacity="1.000000" stroke="none" 
	d="
M528.699097,593.885010 
	C528.739380,594.069336 528.494446,594.354370 528.034119,594.822021 
	C528.017090,594.664978 528.215454,594.325317 528.699097,593.885010 
z"/>
<path fill="#FE8201" opacity="1.000000" stroke="none" 
	d="
M535.646240,586.796509 
	C535.685120,586.966492 535.447388,587.282471 534.994995,587.804077 
	C534.976807,587.653992 535.173157,587.298218 535.646240,586.796509 
z"/>
<path fill="#FE8402" opacity="1.000000" stroke="none" 
	d="
M602.287842,594.041931 
	C602.269226,593.884460 602.509705,593.618530 602.967529,593.192749 
	C602.972107,593.333008 602.759521,593.633240 602.287842,594.041931 
z"/>
<path fill="#FE8201" opacity="1.000000" stroke="none" 
	d="
M529.706421,592.900146 
	C529.741333,593.085571 529.486450,593.362854 529.009888,593.816956 
	C528.997742,593.659851 529.207214,593.325867 529.706421,592.900146 
z"/>
<path fill="#FE8402" opacity="1.000000" stroke="none" 
	d="
M408.984894,655.260010 
	C409.152405,655.236084 409.408936,655.476929 409.820251,655.931763 
	C409.674622,655.938660 409.374268,655.731750 408.984894,655.260010 
z"/>
<path fill="#FE8201" opacity="1.000000" stroke="none" 
	d="
M530.706665,591.900269 
	C530.745117,592.085449 530.495544,592.364014 530.030029,592.822266 
	C530.015564,592.665894 530.217163,592.329712 530.706665,591.900269 
z"/>
<path fill="#FE8402" opacity="1.000000" stroke="none" 
	d="
M399.567932,645.919739 
	C399.774811,645.751160 400.022003,645.885864 400.236877,646.382690 
	C400.055237,646.459839 399.856445,646.285889 399.567932,645.919739 
z"/>
<path fill="#FE8201" opacity="1.000000" stroke="none" 
	d="
M531.689087,590.869507 
	C531.731201,591.053711 531.487183,591.343140 531.028564,591.818542 
	C531.010315,591.661255 531.206665,591.317993 531.689087,590.869507 
z"/>
<path fill="#FE8201" opacity="1.000000" stroke="none" 
	d="
M534.678223,587.848328 
	C534.715515,588.035522 534.459534,588.326355 533.976929,588.800781 
	C533.961853,588.640198 534.173401,588.296082 534.678223,587.848328 
z"/>
<path fill="#FE8201" opacity="1.000000" stroke="none" 
	d="
M532.691162,589.867676 
	C532.728516,590.056519 532.472839,590.341492 531.992859,590.807861 
	C531.978455,590.647522 532.188354,590.305725 532.691162,589.867676 
z"/>
<path fill="#FE8201" opacity="1.000000" stroke="none" 
	d="
M526.711548,595.910522 
	C526.746887,596.091614 526.498535,596.369263 526.033203,596.824341 
	C526.020203,596.670227 526.223999,596.338623 526.711548,595.910522 
z"/>
<path fill="#FE8201" opacity="1.000000" stroke="none" 
	d="
M533.677979,588.849487 
	C533.719543,589.036865 533.469482,589.329285 532.998901,589.808594 
	C532.981079,589.648560 533.183716,589.301514 533.677979,588.849487 
z"/>
<path fill="#FE8201" opacity="1.000000" stroke="none" 
	d="
M521.692871,600.895264 
	C521.715088,601.058594 521.472595,601.343628 521.002747,601.795410 
	C520.992981,601.647156 521.210510,601.332031 521.692871,600.895264 
z"/>
<path fill="#FE8201" opacity="1.000000" stroke="none" 
	d="
M489.705994,632.926758 
	C489.728485,633.085205 489.492859,633.362122 489.041809,633.807617 
	C489.033539,633.665833 489.240692,633.355530 489.705994,632.926758 
z"/>
<path fill="#FE8201" opacity="1.000000" stroke="none" 
	d="
M497.699646,624.915955 
	C497.720032,625.075623 497.478607,625.354675 497.014679,625.799927 
	C497.007416,625.655884 497.222626,625.345642 497.699646,624.915955 
z"/>
<path fill="#FE8402" opacity="1.000000" stroke="none" 
	d="
M376.954590,623.285767 
	C377.113861,623.263245 377.383423,623.498108 377.812836,623.949097 
	C377.670105,623.957947 377.367493,623.750488 376.954590,623.285767 
z"/>
<path fill="#FE8201" opacity="1.000000" stroke="none" 
	d="
M505.703003,616.924866 
	C505.723450,617.085144 505.482300,617.363708 505.016541,617.805176 
	C505.008392,617.659729 505.224884,617.351440 505.703003,616.924866 
z"/>
<path fill="#FE8402" opacity="1.000000" stroke="none" 
	d="
M364.944214,611.292786 
	C365.102875,611.271240 365.372833,611.508240 365.806274,611.960449 
	C365.665009,611.967529 365.360260,611.759460 364.944214,611.292786 
z"/>
<path fill="#FE8402" opacity="1.000000" stroke="none" 
	d="
M392.975342,639.264038 
	C393.146973,639.227539 393.410736,639.456848 393.841309,639.889038 
	C393.694550,639.904541 393.381012,639.717224 392.975342,639.264038 
z"/>
<path fill="#FE8201" opacity="1.000000" stroke="none" 
	d="
M513.702148,608.921021 
	C513.721069,609.079407 513.478455,609.355896 513.013794,609.797546 
	C513.007935,609.654846 513.224243,609.346985 513.702148,608.921021 
z"/>
<path fill="#FE8201" opacity="1.000000" stroke="none" 
	d="
M483.706604,638.941284 
	C483.737976,639.103271 483.508087,639.380554 483.072632,639.835083 
	C483.059814,639.693726 483.252533,639.375183 483.706604,638.941284 
z"/>
<path fill="#FE8402" opacity="1.000000" stroke="none" 
	d="
M393.992981,640.261780 
	C394.165253,640.227966 394.422760,640.461487 394.842224,640.900635 
	C394.695496,640.913879 394.386841,640.721497 393.992981,640.261780 
z"/>
<path fill="#FE8401" opacity="1.000000" stroke="none" 
	d="
M434.056030,606.701111 
	C433.897644,606.722046 433.628357,606.484924 433.195068,606.033447 
	C433.335724,606.027039 433.640442,606.235046 434.056030,606.701111 
z"/>
<path fill="#FE8402" opacity="1.000000" stroke="none" 
	d="
M397.567383,643.913208 
	C397.772766,643.748047 398.020630,643.884460 398.238556,644.381287 
	C398.059174,644.455566 397.859589,644.279907 397.567383,643.913208 
z"/>
<path fill="#FE8201" opacity="1.000000" stroke="none" 
	d="
M482.732056,639.959473 
	C482.763214,640.130920 482.522461,640.397766 482.072876,640.836304 
	C482.062744,640.690247 482.261444,640.372559 482.732056,639.959473 
z"/>
<path fill="#FE8201" opacity="1.000000" stroke="none" 
	d="
M481.727112,640.957764 
	C481.750977,641.128967 481.493683,641.392578 481.015320,641.823975 
	C481.011505,641.677856 481.228760,641.364075 481.727112,640.957764 
z"/>
<path fill="#FE8201" opacity="1.000000" stroke="none" 
	d="
M523.721558,598.912109 
	C523.740540,599.089722 523.474182,599.357727 522.973511,599.785889 
	C522.971497,599.631531 523.203796,599.317078 523.721558,598.912109 
z"/>
<path fill="#FE8201" opacity="1.000000" stroke="none" 
	d="
M524.711548,597.911011 
	C524.745850,598.090576 524.497803,598.368652 524.032349,598.823792 
	C524.019592,598.670349 524.224304,598.339966 524.711548,597.911011 
z"/>
<path fill="#FE8402" opacity="1.000000" stroke="none" 
	d="
M396.565491,642.921021 
	C396.771576,642.752930 397.018463,642.887146 397.233521,643.382324 
	C397.052856,643.458740 396.854401,643.285400 396.565491,642.921021 
z"/>
<path fill="#FE8201" opacity="1.000000" stroke="none" 
	d="
M525.711914,596.910950 
	C525.746643,597.091370 525.498230,597.369019 525.032532,597.823853 
	C525.019775,597.670105 525.224304,597.339172 525.711914,596.910950 
z"/>
<path fill="#FE8402" opacity="1.000000" stroke="none" 
	d="
M387.946594,634.292603 
	C388.099884,634.274231 388.366638,634.510925 388.799744,634.957886 
	C388.664093,634.961304 388.362061,634.754517 387.946594,634.292603 
z"/>
<path fill="#FE8201" opacity="1.000000" stroke="none" 
	d="
M480.678223,641.864807 
	C480.820892,642.082520 480.622559,642.267029 480.188110,642.316223 
	C480.175140,642.181274 480.303558,642.064819 480.678223,641.864807 
z"/>
<path fill="#FE8201" opacity="1.000000" stroke="none" 
	d="
M527.711670,594.910645 
	C527.747253,595.092102 527.498657,595.369507 527.033325,595.824463 
	C527.020264,595.670105 527.223938,595.338257 527.711670,594.910645 
z"/>
<path fill="#FE8401" opacity="1.000000" stroke="none" 
	d="
M423.043213,595.713379 
	C422.886597,595.735046 422.620850,595.500671 422.191711,595.055786 
	C422.330200,595.049255 422.632141,595.253296 423.043213,595.713379 
z"/>
<path fill="#FE8201" opacity="1.000000" stroke="none" 
	d="
M679.727295,441.938965 
	C679.750916,442.119354 679.492859,442.383789 679.006226,442.806458 
	C679.000305,442.650787 679.222961,442.336884 679.727295,441.938965 
z"/>
<path fill="#FE8504" opacity="1.000000" stroke="none" 
	d="
M661.711182,459.929260 
	C661.743164,460.102509 661.501831,460.377289 661.044373,460.822876 
	C661.031372,460.672760 661.234619,460.351746 661.711182,459.929260 
z"/>
<path fill="#FE8504" opacity="1.000000" stroke="none" 
	d="
M662.688721,458.910400 
	C662.720032,459.074127 662.487976,459.359131 662.042847,459.822327 
	C662.028320,459.677551 662.226807,459.354645 662.688721,458.910400 
z"/>
<path fill="#FE8504" opacity="1.000000" stroke="none" 
	d="
M665.714478,455.914978 
	C665.744202,456.091187 665.500916,456.367615 665.033813,456.805969 
	C665.020569,456.650360 665.231079,456.332794 665.714478,455.914978 
z"/>
<path fill="#FE8504" opacity="1.000000" stroke="none" 
	d="
M666.713257,454.925354 
	C666.746887,455.106018 666.500427,455.379272 666.033081,455.820557 
	C666.019165,455.665070 666.226135,455.341522 666.713257,454.925354 
z"/>
<path fill="#FE8504" opacity="1.000000" stroke="none" 
	d="
M667.711548,453.922638 
	C667.749390,454.103394 667.507629,454.378754 667.050537,454.825989 
	C667.034119,454.671021 667.233093,454.344116 667.711548,453.922638 
z"/>
<path fill="#FE8504" opacity="1.000000" stroke="none" 
	d="
M668.695557,452.893616 
	C668.736816,453.074890 668.499084,453.359619 668.046509,453.822021 
	C668.026672,453.665466 668.221619,453.331238 668.695557,452.893616 
z"/>
<path fill="#FE8504" opacity="1.000000" stroke="none" 
	d="
M669.675415,451.874084 
	C669.714233,452.053619 669.474365,452.343384 669.013916,452.811035 
	C668.994446,452.654022 669.195557,452.319153 669.675415,451.874084 
z"/>
<path fill="#FE8201" opacity="1.000000" stroke="none" 
	d="
M670.664551,450.882782 
	C670.694275,451.047546 670.454285,451.337921 669.997803,451.813477 
	C669.985840,451.668579 670.190369,451.338470 670.664551,450.882782 
z"/>
<path fill="#FE8201" opacity="1.000000" stroke="none" 
	d="
M672.685425,448.890045 
	C672.701477,449.050323 672.450134,449.334686 671.968384,449.787903 
	C671.964600,449.642578 672.191284,449.328369 672.685425,448.890045 
z"/>
<path fill="#FE8201" opacity="1.000000" stroke="none" 
	d="
M674.731079,446.938171 
	C674.748047,447.111298 674.484131,447.374023 673.991150,447.797180 
	C673.991394,447.647675 674.220825,447.337677 674.731079,446.938171 
z"/>
<path fill="#FE8201" opacity="1.000000" stroke="none" 
	d="
M675.692688,445.911682 
	C675.725647,446.075043 675.493958,446.360443 675.055664,446.829895 
	C675.042053,446.687225 675.235046,446.360474 675.692688,445.911682 
z"/>
<path fill="#FE8504" opacity="1.000000" stroke="none" 
	d="
M660.721313,460.928711 
	C660.743591,461.100555 660.491394,461.369415 660.013184,461.797729 
	C660.007141,461.646698 660.227051,461.336212 660.721313,460.928711 
z"/>
<path fill="#FE8201" opacity="1.000000" stroke="none" 
	d="
M680.681274,440.861389 
	C680.723755,441.029694 680.499634,441.330475 680.070618,441.823730 
	C680.048706,441.675446 680.231628,441.334625 680.681274,440.861389 
z"/>
<path fill="#FE8201" opacity="1.000000" stroke="none" 
	d="
M682.714600,438.892761 
	C682.733582,439.071075 682.465515,439.343506 681.961670,439.779114 
	C681.959717,439.623810 682.193604,439.305328 682.714600,438.892761 
z"/>
<path fill="#FE8201" opacity="1.000000" stroke="none" 
	d="
M683.674866,437.880219 
	C683.707520,438.047272 683.469116,438.340057 683.014771,438.818634 
	C683.000549,438.671631 683.202209,438.338776 683.674866,437.880219 
z"/>
<path fill="#FE8201" opacity="1.000000" stroke="none" 
	d="
M685.688110,435.894409 
	C685.709229,436.056458 685.465271,436.340363 684.995239,436.792603 
	C684.987183,436.646027 685.205139,436.331116 685.688110,435.894409 
z"/>
<path fill="#FE8201" opacity="1.000000" stroke="none" 
	d="
M720.115356,434.688171 
	C719.951416,434.722748 719.657471,434.491089 719.174561,434.051208 
	C719.318787,434.035950 719.652039,434.228943 720.115356,434.688171 
z"/>
<path fill="#FE8201" opacity="1.000000" stroke="none" 
	d="
M687.687073,433.901703 
	C687.706848,434.063019 687.461853,434.343842 686.991150,434.791382 
	C686.984375,434.645782 687.203308,434.333496 687.687073,433.901703 
z"/>
<path fill="#FE8201" opacity="1.000000" stroke="none" 
	d="
M719.075806,433.718750 
	C718.896484,433.757782 718.620544,433.518768 718.166870,433.071228 
	C718.319153,433.055389 718.649109,433.248047 719.075806,433.718750 
z"/>
<path fill="#FE8201" opacity="1.000000" stroke="none" 
	d="
M718.052002,432.728790 
	C717.873535,432.770752 717.603882,432.539795 717.162354,432.104584 
	C717.313904,432.085510 717.637329,432.270691 718.052002,432.728790 
z"/>
<path fill="#FE8201" opacity="1.000000" stroke="none" 
	d="
M690.735840,430.976837 
	C690.754517,431.146606 690.500183,431.403595 690.020386,431.812134 
	C690.017578,431.663757 690.240234,431.363922 690.735840,430.976837 
z"/>
<path fill="#FE8201" opacity="1.000000" stroke="none" 
	d="
M715.318359,430.480560 
	C715.127808,430.561066 714.781128,430.367279 714.212158,429.973267 
	C714.380676,429.917480 714.771423,430.061859 715.318359,430.480560 
z"/>
<path fill="#FE8504" opacity="1.000000" stroke="none" 
	d="
M593.743774,528.005859 
	C593.767029,528.169617 593.530396,528.423645 593.082642,528.830811 
	C593.075684,528.687988 593.279785,528.392090 593.743774,528.005859 
z"/>
<path fill="#FE8402" opacity="1.000000" stroke="none" 
	d="
M619.264648,577.037354 
	C619.242371,576.865540 619.492371,576.604858 619.964050,576.187744 
	C619.969421,576.337097 619.753174,576.642822 619.264648,577.037354 
z"/>
<path fill="#FE8402" opacity="1.000000" stroke="none" 
	d="
M625.266235,571.028931 
	C625.234070,570.857971 625.471252,570.594116 625.916138,570.162659 
	C625.927734,570.308655 625.731689,570.622314 625.266235,571.028931 
z"/>
<path fill="#FE8402" opacity="1.000000" stroke="none" 
	d="
M630.284912,566.046204 
	C630.262268,565.888916 630.495483,565.619507 630.941772,565.187134 
	C630.950073,565.327515 630.745422,565.630798 630.284912,566.046204 
z"/>
<path fill="#FE8401" opacity="1.000000" stroke="none" 
	d="
M389.021973,561.739868 
	C388.855621,561.758911 388.599274,561.508850 388.186523,561.040222 
	C388.330719,561.038025 388.631378,561.254395 389.021973,561.739868 
z"/>
<path fill="#FE8504" opacity="1.000000" stroke="none" 
	d="
M576.088196,545.641479 
	C576.191406,545.578552 576.317505,545.849731 576.317505,545.849731 
	C576.317505,545.849731 576.150940,546.018250 576.056396,545.981689 
	C575.961853,545.945129 575.984985,545.704468 576.088196,545.641479 
z"/>
<path fill="#FE8504" opacity="1.000000" stroke="none" 
	d="
M577.168335,544.545044 
	C577.331909,544.769958 577.171814,545.035706 576.633911,545.273926 
	C576.556213,545.078064 576.752380,544.857849 577.168335,544.545044 
z"/>
<path fill="#FE8504" opacity="1.000000" stroke="none" 
	d="
M578.174438,543.552368 
	C578.198730,543.695374 578.030579,543.978516 577.617920,544.342896 
	C577.526306,544.138611 577.729126,543.894775 578.174438,543.552368 
z"/>
<path fill="#FE8504" opacity="1.000000" stroke="none" 
	d="
M580.155701,541.556274 
	C580.181274,541.698059 580.018860,541.978638 579.615112,542.337341 
	C579.522766,542.134888 579.720703,541.894775 580.155701,541.556274 
z"/>
<path fill="#FE8504" opacity="1.000000" stroke="none" 
	d="
M581.152954,540.555420 
	C581.319702,540.778320 581.159668,541.053711 580.618530,541.318420 
	C580.529907,541.118408 580.726135,540.885132 581.152954,540.555420 
z"/>
<path fill="#FE8504" opacity="1.000000" stroke="none" 
	d="
M582.159851,539.557495 
	C582.325928,539.781006 582.164185,540.056580 581.619507,540.321228 
	C581.530273,540.120178 581.728760,539.886597 582.159851,539.557495 
z"/>
<path fill="#FE8504" opacity="1.000000" stroke="none" 
	d="
M583.118774,538.570679 
	C583.289307,538.786072 583.140015,539.058167 582.613892,539.320801 
	C582.526245,539.127747 582.713562,538.899780 583.118774,538.570679 
z"/>
<path fill="#FE8401" opacity="1.000000" stroke="none" 
	d="
M406.037384,578.715332 
	C405.879608,578.736389 405.613739,578.500305 405.186707,578.050903 
	C405.326813,578.044434 405.628052,578.251343 406.037384,578.715332 
z"/>
<path fill="#FE8504" opacity="1.000000" stroke="none" 
	d="
M594.744141,526.999390 
	C594.774536,527.161987 594.547180,527.421082 594.117310,527.842163 
	C594.105347,527.701416 594.295837,527.398621 594.744141,526.999390 
z"/>
<path fill="#FE8504" opacity="1.000000" stroke="none" 
	d="
M599.062744,522.582642 
	C599.228821,522.780945 599.104614,523.013794 598.632690,523.207642 
	C598.560791,523.035156 598.723389,522.851318 599.062744,522.582642 
z"/>
<path fill="#FE8402" opacity="1.000000" stroke="none" 
	d="
M673.284424,523.039673 
	C673.261353,522.880371 673.495544,522.612793 673.943604,522.184570 
	C673.952209,522.326355 673.746948,522.628906 673.284424,523.039673 
z"/>
<path fill="#FE8504" opacity="1.000000" stroke="none" 
	d="
M605.066467,516.575317 
	C605.236206,516.778503 605.109680,517.015259 604.630127,517.213440 
	C604.552795,517.034729 604.717163,516.846069 605.066467,516.575317 
z"/>
<path fill="#FE8504" opacity="1.000000" stroke="none" 
	d="
M606.067078,515.573486 
	C606.237488,515.777710 606.110291,516.015381 605.628906,516.214478 
	C605.550903,516.034729 605.715820,515.845093 606.067078,515.573486 
z"/>
<path fill="#FE8504" opacity="1.000000" stroke="none" 
	d="
M607.069092,514.572449 
	C607.239197,514.777100 607.111206,515.015747 606.628784,515.216553 
	C606.550842,515.036560 606.716431,514.845825 607.069092,514.572449 
z"/>
<path fill="#FE8504" opacity="1.000000" stroke="none" 
	d="
M626.716064,494.957123 
	C626.738953,495.115051 626.506104,495.385040 626.058655,495.815796 
	C626.049500,495.674103 626.254944,495.371643 626.716064,494.957123 
z"/>
<path fill="#FE8402" opacity="1.000000" stroke="none" 
	d="
M707.284241,489.042969 
	C707.262573,488.885376 707.497375,488.616913 707.946167,488.186707 
	C707.953735,488.327393 707.747192,488.629761 707.284241,489.042969 
z"/>
<path fill="#FE8504" opacity="1.000000" stroke="none" 
	d="
M645.713379,475.958466 
	C645.736572,476.118195 645.502747,476.386749 645.053955,476.815216 
	C645.044800,476.672485 645.250549,476.369904 645.713379,475.958466 
z"/>
<path fill="#FE8402" opacity="1.000000" stroke="none" 
	d="
M725.902710,470.334961 
	C725.797363,470.415039 725.665588,470.139740 725.665588,470.139740 
	C725.665588,470.139740 725.820496,469.942047 725.920166,469.966248 
	C726.019775,469.990448 726.007996,470.254852 725.902710,470.334961 
z"/>
</svg>